<svg xmlns="http://www.w3.org/2000/svg" width="160" height="42" viewBox="0 0 160 42" fill="none">
<path d="M60.4393 12.5303C64.4126 12.5303 67.6982 13.9999 70.4489 16.8618C73.1996 19.7237 74.575 23.2044 74.575 27.2265C74.575 31.2486 73.1996 34.6519 70.4489 37.5911C67.6982 40.5303 64.3362 41.9226 60.4393 41.9226C56.4661 41.9226 53.1041 40.453 50.3534 37.5911C47.6027 34.6519 46.2273 31.2486 46.2273 27.2265C46.2273 23.2044 47.6027 19.7237 50.3534 16.8618C53.1041 13.9999 56.4661 12.5303 60.4393 12.5303ZM60.4393 35.0386C62.426 35.0386 64.1834 34.2651 65.5587 32.7182C66.9341 31.1712 67.6982 29.3922 67.6982 27.3038C67.6982 25.2154 67.0105 23.3591 65.5587 21.8121C64.1834 20.2651 62.426 19.4917 60.4393 19.4917C58.3763 19.4917 56.6953 20.2651 55.2435 21.8121C53.8682 23.3591 53.1041 25.1381 53.1041 27.3038C53.1041 29.3922 53.7918 31.1712 55.2435 32.7182C56.6189 34.2651 58.3763 35.0386 60.4393 35.0386Z" fill="#005794"/>
<path d="M75.4155 36.9724C76.1032 36.9724 76.638 37.2045 77.0965 37.6685C77.5549 38.1326 77.7842 38.6741 77.7842 39.3702C77.7842 40.0663 77.5549 40.6078 77.0965 41.0719C76.638 41.5359 76.1032 41.768 75.4155 41.768C74.7278 41.768 74.1929 41.5359 73.7345 41.0719C73.276 40.6078 73.0468 40.0663 73.0468 39.3702C73.0468 38.6741 73.276 38.1326 73.7345 37.6685C74.1929 37.2045 74.8042 36.9724 75.4155 36.9724Z" fill="#005794"/>
<path d="M81.0341 29.1301C82.4095 27.6605 84.0905 26.9644 86.0007 26.9644H91.1965V30.6771H86.0007C85.0838 30.6771 84.3197 31.0638 83.632 31.7599C83.0207 32.4561 82.6387 33.3842 82.6387 34.3898C82.6387 35.3953 82.9443 36.2461 83.632 37.0196C84.2433 37.7157 85.0838 38.1025 86.0007 38.1025H91.1965V41.8152H86.0007C84.0905 41.8152 82.4095 41.1191 81.0341 39.6494C79.6587 38.1798 78.9711 36.4782 78.9711 34.3898C78.9711 32.3014 79.6587 30.5224 81.0341 29.1301Z" fill="#005794"/>
<path d="M99.0258 26.1437C101.165 26.1437 102.923 26.9172 104.374 28.4641C105.826 30.0111 106.59 31.8674 106.59 34.0332C106.59 36.1989 105.826 37.9779 104.374 39.6022C102.923 41.1492 101.089 41.9227 99.0258 41.9227C96.8863 41.9227 95.1289 41.1492 93.6772 39.6022C92.2254 38.0553 91.4613 36.1989 91.4613 34.0332C91.4613 31.8674 92.2254 30.0111 93.6772 28.4641C95.1289 26.9172 96.9627 26.1437 99.0258 26.1437ZM99.0258 38.1326C100.096 38.1326 101.012 37.7459 101.776 36.8951C102.541 36.0442 102.923 35.1161 102.923 34.0332C102.923 32.873 102.541 31.9448 101.776 31.094C101.012 30.2431 100.096 29.8564 99.0258 29.8564C97.9561 29.8564 97.0391 30.2431 96.2751 31.094C95.511 31.9448 95.1289 32.873 95.1289 34.0332C95.1289 35.1161 95.511 36.1216 96.2751 36.8951C97.0391 37.7459 97.9561 38.1326 99.0258 38.1326Z" fill="#005794"/>
<path d="M14.3649 12.1436C18.3381 12.1436 21.7765 13.6132 24.5272 16.5525C27.2779 19.4917 28.7297 22.9723 28.7297 27.0718C28.7297 31.0939 27.3543 34.6519 24.5272 37.5911C21.7765 40.5304 18.3381 42 14.3649 42C10.3916 42 6.9532 40.5304 4.20248 37.5911C1.37536 34.5746 0 31.0939 0 27.0718C0 22.9723 1.37536 19.4917 4.20248 16.5525C6.9532 13.6132 10.3916 12.1436 14.3649 12.1436ZM14.3649 34.8839C16.4279 34.8839 18.1853 34.1105 19.5607 32.5635C21.0124 31.0165 21.7001 29.1602 21.7001 27.0718C21.7001 24.906 21.0124 23.0497 19.5607 21.5027C18.1089 19.9558 16.3515 19.1823 14.3649 19.1823C12.3018 19.1823 10.5444 19.9558 9.09265 21.5027C7.64088 23.0497 6.9532 24.906 6.9532 27.0718C6.9532 29.1602 7.64088 31.0165 9.09265 32.5635C10.5444 34.1105 12.3018 34.8839 14.3649 34.8839Z" fill="#005794"/>
<path d="M126.38 27.8453C127.526 29.0055 128.138 30.4751 128.138 32.1768V41.3812H124.47V32.1768C124.47 31.4806 124.241 30.9392 123.782 30.4751C123.324 30.011 122.789 29.779 122.101 29.779C121.49 29.779 120.955 30.011 120.497 30.4751C120.038 30.9392 119.809 31.4806 119.809 32.1768V41.3812H116.141V32.1768C116.141 31.4806 115.912 30.9392 115.454 30.4751C114.995 30.011 114.46 29.779 113.773 29.779C113.161 29.779 112.627 30.011 112.168 30.4751C111.71 30.9392 111.48 31.4806 111.48 32.1768V41.3812H107.736V32.1768C107.736 30.4751 108.348 29.0829 109.494 27.8453C110.64 26.6851 112.092 26.0663 113.696 26.0663C115.301 26.0663 116.676 26.6077 117.822 27.7679C118.968 26.6077 120.42 26.0663 121.948 26.0663C123.782 26.0663 125.158 26.6851 126.38 27.8453Z" fill="#005794"/>
<path d="M132.264 36.9724C132.951 36.9724 133.486 37.2045 133.945 37.6685C134.403 38.1326 134.632 38.6741 134.632 39.3702C134.632 40.0663 134.403 40.6078 133.945 41.0719C133.486 41.5359 132.951 41.768 132.264 41.768C131.576 41.768 131.041 41.5359 130.583 41.0719C130.124 40.6078 129.895 40.0663 129.895 39.3702C129.895 38.6741 130.124 38.1326 130.583 37.6685C131.041 37.2045 131.576 36.9724 132.264 36.9724Z" fill="#005794"/>
<path d="M139.217 36.1214L142.884 26.4529H146.781L141.891 39.4474C141.356 40.917 140.439 41.6132 139.217 41.6132C137.994 41.6132 137.154 40.917 136.542 39.4474L131.423 26.4529H135.396L139.217 36.1214Z" fill="#005794"/>
<path d="M153.047 26.0663C155.033 26.0663 156.638 26.8398 158.013 28.3094C159.312 29.779 160 31.4806 160 33.4917V41.3812H156.332V33.4917C156.332 32.4862 156.027 31.6353 155.415 30.9392C154.804 30.1657 154.04 29.8563 153.047 29.8563C152.13 29.8563 151.289 30.2431 150.678 30.9392C150.067 31.7127 149.761 32.5635 149.761 33.4917V41.3812H146.094V33.4917C146.094 31.4806 146.781 29.779 148.08 28.3094C149.456 26.8398 151.06 26.0663 153.047 26.0663Z" fill="#005794"/>
<path d="M45.0048 19.4918V13.1492H38.8157V4.64093L30.2579 7.11607V8.35364V19.6465V32.3315C30.2579 38.6741 33.2378 41.8454 39.2741 41.8454C41.7956 41.8454 43.7058 41.536 45.0048 40.8398V34.4199C44.0879 34.9614 43.0946 35.1934 42.2541 35.1934C39.9618 35.1934 38.8157 33.7238 38.8157 30.7846V19.4918H45.0048Z" fill="#005794"/>
<path d="M105.597 22.0441L111.251 14.8508L115.148 9.90049L114.69 9.4364L109.952 13.5358L103.076 19.4916C101.165 21.348 103.992 24.1325 105.597 22.0441Z" fill="#4CB648"/>
<path d="M101.624 23.7459C102.999 25.1382 105.291 25.0608 106.59 23.6686C107.354 22.8177 107.66 21.7349 107.584 20.7293L106.132 22.5083C105.521 23.2818 104.757 23.5912 103.992 23.5139C103.458 23.5139 102.846 23.2818 102.464 22.8951C102.006 22.5083 101.777 21.9669 101.777 21.3481C101.7 20.652 101.929 19.8012 102.693 19.105L104.451 17.6354C103.381 17.5581 102.311 17.8675 101.547 18.7183C100.172 20.1106 100.248 22.3536 101.624 23.7459Z" fill="#4CB648"/>
<path d="M84.0497 23.9006C84.1261 23.1271 84.2789 22.3536 84.4318 21.5801C84.4318 21.5028 84.5846 21.4254 84.661 21.4254L87.0297 22.0442C87.1061 22.0442 87.2589 22.0442 87.2589 21.8895L87.4881 20.884C87.4881 20.8066 87.4881 20.6519 87.3353 20.6519L84.9666 20.0331C84.8902 20.0331 84.8138 19.8785 84.8138 19.8011C84.9666 19.2597 85.1958 18.7182 85.3487 18.1768C85.5015 17.326 86.4184 15.7017 87.2589 14.4641V14.3867C87.6409 13.8453 87.9466 13.3039 88.405 12.7624C88.8635 12.1436 89.3219 11.6022 89.8568 10.9834C89.9332 10.9061 90.0096 10.9061 90.086 10.9834L91.767 12.6851C91.8434 12.7624 91.9198 12.7624 91.9962 12.6851L92.6839 11.9889C92.7603 11.9116 92.7603 11.8343 92.6839 11.7569L90.9265 9.9779C90.8501 9.90055 90.8501 9.8232 90.9265 9.74586C91.5378 9.20442 92.149 8.66298 92.8367 8.12155C94.9762 6.34254 97.6505 5.33702 97.6505 5.33702C98.3382 5.02762 98.9494 4.79558 99.6371 4.56354C99.7135 4.56354 99.8663 4.56354 99.8663 4.71823L100.478 7.11602C100.478 7.19337 100.63 7.27072 100.707 7.27072L101.7 7.03867C101.777 7.03867 101.853 6.88398 101.853 6.80663L101.242 4.40884C101.242 4.33149 101.242 4.1768 101.395 4.1768C102.235 4.0221 103.992 3.71271 103.992 3.71271C104.069 3.71271 104.069 3.71271 104.145 3.71271C104.604 3.63536 105.062 3.63536 105.597 3.63536H105.673C106.208 3.55801 106.743 3.55801 107.202 3.63536H107.278C107.66 3.63536 108.118 3.71271 108.501 3.71271C108.653 3.71271 108.883 3.71271 109.035 3.79006C109.876 3.8674 110.64 4.0221 111.48 4.1768C111.557 4.1768 111.633 4.33149 111.633 4.40884L111.022 6.80663C111.022 6.88398 111.022 7.03867 111.175 7.03867L112.168 7.27072C112.245 7.27072 112.397 7.27072 112.397 7.11602L113.009 4.71823C113.009 4.64088 113.161 4.56354 113.238 4.56354C114.231 4.87293 115.225 5.25967 116.218 5.72376C116.523 5.87845 116.829 6.03315 117.135 6.18784C117.135 6.18784 117.135 6.18784 117.211 6.18784C117.975 6.57458 118.892 7.11602 119.656 7.65746C120.497 8.27624 121.261 8.89503 122.025 9.59116C122.101 9.66851 122.101 9.74586 122.025 9.8232L120.267 11.6022C120.191 11.6796 120.191 11.7569 120.267 11.8343L120.955 12.5304C121.032 12.6077 121.108 12.6077 121.184 12.5304L122.865 10.8287C122.942 10.7514 123.018 10.7514 123.095 10.8287C123.782 11.6022 124.394 12.3757 125.005 13.2265C125.005 13.3039 125.081 13.3039 125.081 13.3812C125.234 13.5359 125.31 13.768 125.463 13.9227C125.463 13.9227 125.463 13.9227 125.54 14C125.616 14.0773 125.693 14.1547 125.693 14.232C125.693 14.232 125.693 14.232 125.693 14.3094C126.151 15.0055 127.068 16.5525 127.221 17.1713C127.603 18.0221 127.908 18.8729 128.138 19.7238C128.138 19.8011 128.138 19.9558 127.985 19.9558L125.616 20.5746C125.54 20.5746 125.463 20.7293 125.463 20.8066L125.693 21.8122C125.693 21.8895 125.845 21.9668 125.922 21.9668L128.29 21.3481C128.367 21.3481 128.52 21.3481 128.52 21.5028C128.672 22.2762 128.825 23.0497 128.902 23.8232H132.569C131.958 17.7127 129.284 12.1436 125.005 7.73481C120.344 2.78453 113.696 0 106.667 0C99.6371 0 92.9895 2.78453 88.023 7.81215C83.6677 12.221 81.0698 17.7901 80.4585 23.9006H84.0497Z" fill="#4CB648"/>
</svg>